<svg version="1.0" xmlns="http://www.w3.org/2000/svg" width="2000.000000pt" height="2000.000000pt" viewBox="0 0 2000.000000 2000.000000" preserveAspectRatio="xMidYMid meet">

<g transform="translate(0.000000,2000.000000) scale(0.100000,-0.100000)" fill="#008eff" stroke="none">
<path d="M7365 18588 c-3 -7 -4 -881 -3 -1943 l3 -1930 1460 0 1460 0 0 1940 0 1940 -1458 3 c-1161 2 -1459 0 -1462 -10z m2883 -1930 l2 -1908 -1425 0 -1425 0 0 1903 c0 1047 3 1907 7 1910 3 4 644 6 1422 5 l1416 -3 3 -1907z" fill="#008eff"/>
<path d="M7747 18333 c-4 -3 -7 -66 -7 -140 l0 -133 1023 2 1022 3 0 135 0 135 -1016 3 c-558 1 -1019 -1 -1022 -5z" fill="#008eff"/>
<path d="M7730 16300 c0 -1232 2 -1400 15 -1400 13 0 15 46 17 333 l3 332 263 3 c244 2 263 4 260 20 -3 16 -26 17 -266 20 l-262 2 0 315 0 315 262 2 c240 3 263 4 266 20 3 16 -16 18 -260 20 l-263 3 0 313 0 313 260 2 c237 2 260 3 263 19 3 16 -16 18 -260 20 l-263 3 -3 373 c-2 321 -4 372 -17 372 -13 0 -15 -167 -15 -1400z" fill="#008eff"/>
<path d="M7930 17305 l0 -225 1095 0 1095 0 -2 223 -3 222 -1092 3 -1093 2 0 -225z m2145 0 l0 -180 -1052 -3 -1053 -2 0 178 c0 98 3 182 7 185 3 4 477 6 1052 5 l1046 -3 0 -180z" fill="#008eff"/>
<path d="M7930 16610 l0 -220 745 0 745 0 0 220 0 220 -745 0 -745 0 0 -220z" fill="#008eff"/>
<path d="M7930 15920 l0 -220 900 0 900 0 0 220 0 220 -900 0 -900 0 0 -220z m1760 0 l0 -180 -860 0 -860 0 0 180 0 180 860 0 860 0 0 -180z" fill="#008eff"/>
<path d="M7934 15451 c-2 -2 -4 -103 -4 -223 l0 -218 425 0 425 0 0 223 0 222 -421 0 c-231 0 -423 -2 -425 -4z" fill="#008eff"/>
<path d="M14310 17425 c-8 -2 -49 -9 -90 -15 -105 -17 -236 -62 -342 -116 -327 -169 -555 -460 -646 -824 -23 -93 -26 -125 -26 -280 -1 -187 6 -230 56 -390 205 -650 923 -1013 1573 -796 196 66 350 161 490 301 106 106 180 210 240 338 82 173 113 302 121 497 26 604 -387 1133 -986 1265 -68 15 -351 30 -390 20z m336 -50 c579 -101 1004 -605 1004 -1189 0 -665 -540 -1206 -1205 -1206 -519 0 -979 333 -1145 828 -190 567 75 1194 614 1457 115 56 247 99 351 114 99 14 286 12 381 -4z" fill="#008eff"/>
<path d="M14284 17225 c-227 -35 -415 -131 -582 -297 -137 -137 -229 -295 -278 -483 -24 -88 -27 -118 -27 -260 0 -139 4 -173 26 -257 99 -377 387 -665 765 -765 85 -23 117 -26 257 -26 143 0 171 3 260 27 491 133 818 576 791 1072 -34 626 -596 1085 -1212 989z m406 -55 c279 -69 529 -269 660 -530 252 -500 51 -1107 -450 -1360 -501 -253 -1109 -50 -1362 455 -137 272 -142 600 -14 871 59 124 115 204 205 295 149 149 331 244 544 285 101 19 307 11 417 -16z" fill="#008eff"/>
<path d="M14438 17143 l-48 -4 0 -84 0 -84 -37 -6 c-209 -34 -333 -183 -333 -400 0 -159 52 -261 203 -398 249 -225 274 -256 284 -351 9 -92 -17 -131 -81 -119 -51 10 -86 90 -86 196 0 70 1 70 -166 44 l-149 -23 -3 -43 c-5 -61 24 -195 56 -261 51 -104 141 -170 264 -193 l58 -11 0 -81 c0 -93 7 -105 63 -105 70 0 77 10 77 105 l0 84 58 16 c31 9 81 32 109 51 170 111 214 363 100 578 -31 60 -119 154 -314 338 -88 83 -107 111 -117 174 -18 105 80 177 125 93 6 -12 13 -55 16 -96 4 -44 11 -77 18 -79 6 -3 77 3 156 13 l144 18 -2 81 c-1 93 -34 200 -78 257 -39 52 -109 95 -177 109 l-58 12 0 82 c0 65 -3 83 -16 88 -9 3 -16 5 -17 4 -1 -1 -23 -3 -49 -5z m42 -123 l5 -85 53 -7 c138 -20 218 -102 251 -256 13 -61 14 -122 4 -122 -5 0 -55 -7 -113 -15 -58 -8 -108 -15 -111 -15 -4 0 -9 31 -13 69 -12 115 -65 166 -144 140 -49 -16 -72 -60 -72 -139 1 -107 26 -145 205 -303 133 -118 200 -196 244 -287 35 -73 36 -78 36 -190 0 -105 -2 -120 -28 -171 -48 -98 -148 -171 -254 -186 l-42 -6 -3 -91 c-3 -90 -3 -91 -28 -91 -24 0 -25 2 -30 90 l-5 90 -60 7 c-88 11 -181 61 -228 123 -42 57 -73 146 -83 239 l-7 64 64 10 c35 7 89 14 120 18 l56 6 6 -54 c15 -151 79 -224 173 -199 50 13 69 52 69 139 -1 105 -23 144 -148 262 -224 212 -273 264 -303 325 -26 55 -29 69 -29 175 0 103 3 121 26 170 14 30 38 69 52 86 37 44 136 93 215 108 l67 12 3 75 c3 89 7 101 29 97 15 -3 19 -17 23 -88z" fill="#008eff"/>
<path d="M4820 15964 c-246 -21 -453 -75 -635 -167 -165 -82 -257 -153 -340 -261 -211 -278 -255 -683 -106 -991 51 -106 109 -182 268 -348 100 -104 140 -153 165 -204 33 -67 33 -68 33 -218 0 -82 -4 -161 -8 -175 -4 -15 -32 -42 -72 -69 -78 -52 -117 -99 -145 -174 -21 -55 -59 -112 -274 -411 -300 -417 -342 -554 -340 -1116 1 -312 11 -451 59 -755 55 -356 86 -661 87 -850 1 -115 -5 -174 -33 -335 -41 -244 -46 -412 -14 -456 21 -27 21 -28 3 -133 -31 -193 -43 -390 -30 -504 19 -170 126 -478 253 -727 81 -160 85 -179 98 -502 9 -246 11 -232 -69 -691 -77 -444 -157 -831 -194 -942 -19 -55 -66 -170 -106 -255 -278 -598 -322 -718 -374 -1020 -53 -314 -57 -449 -16 -599 32 -119 44 -430 36 -976 -5 -310 -12 -513 -22 -595 -26 -224 -29 -352 -9 -495 9 -71 21 -138 27 -148 5 -10 11 -87 12 -170 1 -84 6 -160 10 -169 8 -17 -51 -18 -1120 -20 -744 -2 -1129 -6 -1129 -13 0 -16 2308 -20 10078 -16 6205 3 7267 5 7267 17 0 12 -57 14 -350 14 -192 0 -350 3 -350 8 1 4 7 18 15 32 21 36 18 99 -5 138 -49 81 -137 91 -252 30 -70 -37 -171 -126 -194 -171 -30 -57 -23 -19 20 109 43 124 96 338 96 383 0 27 8 26 105 -6 109 -36 236 -38 313 -4 131 58 167 190 75 271 -35 32 -38 32 -112 28 -124 -7 -256 -82 -339 -192 -12 -16 -24 -27 -26 -25 -2 2 0 29 5 59 6 30 20 159 32 285 l22 230 25 -2 c14 -1 66 -13 115 -27 105 -29 171 -32 245 -10 114 34 179 111 166 196 -13 79 -61 118 -147 118 -133 0 -300 -101 -379 -230 -5 -8 -12 -12 -15 -8 -13 12 42 356 78 493 16 59 15 59 142 20 52 -15 116 -27 150 -28 157 -2 275 82 275 194 0 88 -78 149 -174 136 -113 -16 -247 -93 -316 -182 -24 -31 -45 -54 -47 -52 -13 14 113 298 178 400 34 55 23 55 154 0 83 -35 97 -38 185 -38 79 0 103 4 143 24 69 34 102 81 102 147 0 119 -101 170 -258 129 -76 -20 -167 -66 -206 -106 -63 -63 -39 -19 66 121 60 79 113 150 120 158 7 9 47 17 114 23 56 4 125 15 154 24 118 34 215 135 215 224 0 85 -59 151 -135 151 -50 0 -129 -44 -189 -106 -71 -71 -98 -117 -130 -220 -22 -68 -37 -94 -96 -165 -39 -46 -100 -126 -136 -176 -36 -51 -68 -93 -69 -93 -2 0 5 30 16 67 34 120 18 267 -41 370 -38 67 -75 87 -147 81 -93 -8 -141 -77 -130 -186 9 -83 48 -152 128 -226 39 -36 90 -78 115 -93 24 -15 44 -31 44 -35 0 -4 -19 -38 -42 -75 -34 -56 -129 -246 -176 -353 -9 -22 -11 -17 -11 35 -2 116 -49 238 -127 324 -74 83 -159 93 -223 27 -58 -59 -60 -139 -6 -232 46 -80 127 -136 265 -184 36 -13 68 -26 73 -30 4 -4 -6 -58 -22 -121 -16 -63 -37 -163 -46 -224 -23 -146 -25 -150 -41 -83 -27 113 -108 239 -177 275 -70 36 -153 8 -187 -62 -26 -54 -25 -99 4 -161 48 -103 128 -164 294 -224 45 -17 62 -28 62 -41 0 -16 -39 -328 -56 -452 -4 -26 -10 -47 -13 -47 -3 0 -12 24 -19 53 -52 223 -223 351 -330 246 -64 -63 -66 -151 -6 -241 59 -88 126 -134 272 -184 39 -14 52 -24 52 -39 0 -56 -131 -465 -149 -465 -3 0 -6 44 -7 98 -1 81 -5 109 -28 167 -15 39 -34 93 -41 120 -16 55 -65 110 -110 121 -65 16 -134 -23 -187 -106 -39 -61 -78 -188 -79 -258 -1 -65 2 -74 -53 128 -19 69 -53 170 -76 225 -59 142 -59 130 -4 144 104 26 203 72 253 117 59 53 101 132 101 188 -1 99 -89 171 -179 146 -99 -26 -219 -210 -229 -349 -2 -39 -8 -71 -12 -71 -4 0 -18 24 -30 53 -12 28 -71 146 -132 260 -60 115 -108 210 -106 211 1 1 38 12 81 25 163 46 242 98 298 196 59 103 25 219 -73 245 -91 25 -185 -46 -258 -193 -35 -71 -43 -96 -47 -165 -3 -45 -9 -82 -13 -82 -19 0 -220 458 -220 502 0 8 28 21 73 32 161 41 263 110 316 215 55 107 -10 234 -119 233 -52 -1 -87 -21 -144 -82 -70 -75 -118 -184 -124 -282 -2 -43 -8 -78 -12 -78 -18 0 -68 286 -72 420 l-3 74 45 8 c189 35 256 64 329 144 58 63 78 121 62 180 -13 48 -55 91 -101 104 -111 32 -264 -113 -322 -305 l-18 -60 3 98 c1 53 -1 97 -5 97 -5 0 -8 -53 -9 -117 0 -78 -3 -111 -9 -98 -5 11 -23 55 -40 97 -41 99 -125 194 -212 237 -70 36 -109 39 -157 13 -74 -40 -93 -143 -42 -223 35 -56 126 -118 197 -135 29 -6 100 -15 157 -19 l104 -7 6 -132 c6 -114 13 -174 42 -336 l6 -35 -18 25 c-61 83 -85 109 -138 147 -187 133 -370 107 -367 -53 1 -80 49 -136 149 -175 75 -29 178 -29 297 0 49 12 90 20 90 19 1 -2 17 -47 35 -101 18 -55 55 -151 82 -215 28 -65 53 -124 56 -132 4 -8 -9 0 -28 19 -131 130 -313 179 -389 106 -37 -35 -52 -87 -41 -136 29 -128 207 -197 401 -155 41 9 87 19 102 23 27 5 29 1 143 -231 63 -130 115 -240 115 -243 0 -4 -19 11 -42 34 -90 87 -233 151 -310 138 -101 -17 -148 -126 -95 -220 28 -49 92 -89 176 -111 68 -17 152 -11 271 20 l51 13 14 -34 c38 -90 102 -318 130 -463 3 -14 -9 2 -26 35 -67 127 -225 245 -329 245 -157 0 -191 -204 -48 -292 21 -13 38 -26 38 -30 0 -5 -790 -8 -1755 -8 l-1755 0 0 43 c0 46 -16 69 -57 81 -31 10 -109 -26 -155 -72 -43 -41 -44 -41 -22 19 8 24 24 82 34 127 10 46 20 85 22 87 2 3 26 -3 53 -11 66 -20 156 -14 192 12 32 24 47 65 39 100 -8 31 -64 57 -104 48 -48 -12 -119 -52 -145 -84 -27 -32 -43 -39 -34 -16 3 7 10 67 17 132 6 65 13 128 15 140 l5 21 72 -19 c60 -15 81 -17 118 -8 87 22 127 95 82 150 -39 48 -157 16 -233 -63 -22 -23 -39 -35 -39 -27 0 28 20 145 36 213 13 56 19 67 33 62 9 -4 43 -13 76 -22 75 -18 134 -6 177 37 33 34 36 67 7 104 -16 21 -29 26 -63 26 -55 0 -139 -42 -173 -86 -14 -19 -28 -33 -30 -30 -6 6 44 122 78 182 l29 52 58 -24 c91 -37 176 -31 221 17 46 50 7 129 -63 129 -42 0 -129 -31 -159 -57 l-21 -18 18 30 c11 17 33 48 50 70 20 26 23 34 8 21 -11 -10 -38 -43 -58 -72 -21 -30 -38 -54 -40 -54 -1 0 1 28 3 63 6 71 -8 133 -38 171 -29 37 -89 37 -118 0 -44 -56 -14 -148 71 -214 29 -23 54 -45 56 -49 1 -4 -18 -43 -43 -87 -25 -43 -45 -82 -45 -86 0 -4 -5 -19 -12 -35 -11 -28 -11 -27 -18 23 -20 143 -129 234 -189 158 -57 -73 4 -168 140 -219 l47 -17 -18 -69 c-10 -39 -21 -92 -25 -119 -4 -28 -10 -50 -14 -50 -4 0 -12 19 -18 43 -6 23 -27 60 -46 82 -28 33 -40 39 -72 39 -73 0 -100 -83 -50 -156 23 -34 128 -98 162 -98 16 0 16 -27 -2 -160 -8 -58 -15 -109 -15 -115 0 -5 -11 17 -25 50 -28 69 -82 125 -120 125 -14 0 -37 -11 -52 -26 -21 -21 -25 -32 -20 -65 8 -61 50 -107 129 -143 66 -30 68 -32 62 -61 -11 -54 -66 -215 -74 -215 -4 0 -5 10 -3 23 8 43 -43 202 -72 223 -25 19 -65 18 -94 -2 -27 -20 -71 -108 -71 -145 0 -49 -14 -39 -30 23 -10 35 -29 94 -44 132 -14 38 -25 70 -24 71 2 0 29 9 61 19 132 40 195 160 115 219 -62 46 -151 -36 -186 -173 l-8 -35 -68 134 c-37 73 -65 136 -62 139 3 3 31 14 63 24 93 32 143 83 143 148 0 53 -23 80 -70 80 -65 0 -122 -72 -145 -180 l-11 -55 -26 50 c-24 49 -69 158 -82 202 -6 19 -1 23 47 37 133 39 210 152 144 214 -69 65 -174 -25 -196 -166 l-8 -47 -11 40 c-6 22 -13 60 -16 85 -3 25 -8 66 -11 92 l-6 47 38 6 c83 14 132 36 167 76 45 49 49 97 10 136 -30 29 -68 27 -112 -8 -35 -27 -82 -97 -89 -132 -4 -21 -8 -25 -14 -15 -6 10 -9 8 -9 -7 0 -12 -8 -3 -21 25 -53 117 -168 177 -218 114 -26 -33 -26 -60 -1 -101 27 -45 88 -73 171 -80 38 -3 69 -9 69 -12 2 -39 21 -206 26 -226 6 -23 1 -21 -43 23 -79 79 -181 102 -218 49 -38 -55 3 -125 86 -148 36 -9 58 -9 116 3 l72 14 27 -76 c15 -41 35 -92 46 -112 10 -21 18 -40 18 -43 0 -3 -23 11 -51 32 -94 67 -189 55 -189 -24 0 -48 14 -70 62 -94 35 -18 53 -20 107 -16 37 3 76 9 88 12 20 6 28 -5 82 -114 34 -66 61 -124 61 -128 0 -4 -12 5 -27 20 -16 14 -48 35 -73 46 -75 34 -118 25 -140 -29 -36 -88 77 -157 208 -127 34 8 65 11 67 6 16 -25 75 -223 75 -251 0 -6 -13 9 -30 35 -54 85 -154 129 -208 91 -30 -21 -31 -93 -2 -119 11 -10 20 -22 20 -27 0 -4 -1385 -8 -3079 -8 l-3078 0 -5 90 c-12 209 -85 267 -468 374 -180 50 -231 74 -399 190 l-125 85 2 138 c1 76 5 150 8 165 9 43 -14 104 -70 187 l-53 78 9 344 c11 406 4 366 168 1039 220 906 284 1200 345 1595 35 220 87 501 205 1099 139 706 180 955 200 1221 17 224 31 783 24 990 l-7 190 37 19 c105 56 134 246 102 676 -10 124 -18 232 -19 240 -1 9 93 65 273 163 469 253 502 270 510 255 4 -7 22 -116 41 -242 37 -248 43 -262 87 -210 398 468 628 724 663 740 48 21 79 57 79 91 0 14 7 26 18 29 119 40 172 87 172 151 0 24 7 31 45 46 25 11 57 33 71 50 22 26 25 38 22 79 l-5 47 194 223 c107 123 197 229 200 236 3 7 -16 44 -42 82 -39 57 -46 72 -36 84 19 22 12 36 -62 131 -53 66 -72 85 -86 80 -15 -4 -30 9 -66 60 -26 36 -53 65 -60 63 -8 -2 -102 -111 -210 -243 -418 -508 -397 -485 -435 -494 -19 -5 -75 -14 -123 -21 -49 -6 -108 -20 -131 -32 l-43 -21 -226 72 c-125 40 -231 70 -235 67 -5 -3 -15 -26 -22 -52 -11 -39 -11 -47 1 -55 8 -5 77 -29 154 -54 77 -25 146 -48 154 -51 10 -3 3 -11 -20 -23 -20 -10 -54 -47 -84 -90 l-50 -73 -130 -60 c-71 -34 -254 -119 -405 -190 -151 -71 -284 -131 -295 -134 -19 -5 -23 10 -67 278 -71 420 -186 1052 -209 1143 -45 177 -107 326 -216 521 l-73 131 0 160 c0 138 3 174 25 259 31 123 73 234 88 234 7 0 48 -12 92 -27 72 -24 94 -27 220 -27 122 0 147 2 196 22 119 48 165 100 193 223 10 43 24 72 46 94 36 37 53 87 45 135 -4 24 1 47 15 75 27 53 25 68 -10 102 -23 21 -30 37 -30 65 0 34 4 40 39 58 46 23 77 59 86 100 8 36 -26 118 -65 155 l-29 28 21 28 c24 32 35 122 24 184 -8 42 -31 56 -106 64 l-55 6 -7 82 c-16 193 -78 320 -247 505 l-49 53 24 28 c51 59 40 130 -32 207 -51 54 -170 122 -255 144 -58 15 -234 26 -309 20z m489 -413 c36 -7 54 -20 98 -67 166 -181 224 -301 236 -482 4 -61 2 -72 -10 -68 -65 25 -271 31 -363 10 -24 -5 -24 -5 -6 10 32 26 126 57 180 59 59 3 77 11 69 34 -5 13 -19 15 -82 11 -60 -3 -90 -11 -143 -37 -67 -33 -89 -58 -66 -72 7 -4 10 -9 8 -11 -3 -2 -77 -27 -165 -56 -88 -29 -215 -73 -282 -96 -139 -50 -133 -52 -133 52 0 67 8 82 89 162 90 88 121 151 121 246 0 62 -5 81 -35 140 -19 38 -35 74 -35 81 0 20 84 63 152 78 70 15 299 19 367 6z m299 -656 c21 -7 22 -12 22 -105 0 -87 -3 -103 -28 -151 -22 -42 -38 -58 -77 -79 -44 -22 -61 -25 -163 -25 l-113 0 -39 41 c-44 47 -77 138 -81 224 l-3 53 39 14 c89 32 170 42 295 38 69 -2 135 -7 148 -10z m203 -36 c14 -20 6 -143 -10 -163 -13 -15 -17 -14 -43 11 -39 37 -55 68 -63 127 l-8 49 58 -5 c33 -3 61 -11 66 -19z m-649 -303 c45 -55 97 -76 188 -76 177 0 289 68 322 197 l11 44 71 -77 c91 -98 106 -121 106 -162 0 -36 -41 -85 -82 -97 -11 -4 -36 -18 -55 -31 -20 -13 -45 -24 -55 -24 -30 0 -78 54 -78 87 0 37 -13 55 -33 47 -41 -15 -2 -129 56 -165 31 -19 68 -20 113 -2 10 4 14 -2 14 -20 0 -21 -12 -31 -77 -65 -105 -54 -143 -64 -248 -71 -70 -5 -90 -9 -90 -21 0 -8 12 -20 26 -27 16 -8 29 -24 32 -41 9 -43 66 -113 122 -147 40 -25 59 -30 112 -30 l63 0 -5 -30 c-4 -16 -18 -55 -33 -85 -22 -45 -36 -60 -77 -82 -122 -66 -272 -73 -440 -22 -128 39 -145 38 -168 -10 -29 -60 -75 -209 -87 -279 -6 -36 -10 -157 -8 -290 2 -125 1 -227 -2 -227 -9 0 -322 282 -455 410 -71 69 -144 137 -162 150 l-32 25 20 115 c16 92 19 143 15 255 -2 77 -7 151 -11 165 -6 22 -2 28 28 42 19 9 43 31 53 48 17 27 22 30 49 23 70 -18 167 5 182 44 10 26 -18 33 -58 12 -49 -24 -82 -24 -135 2 -104 50 -174 189 -174 344 0 85 14 114 63 139 34 16 46 17 95 7 77 -15 124 -50 161 -121 23 -43 36 -57 47 -53 16 6 15 33 -1 75 -5 11 1 20 17 28 13 7 43 31 68 55 54 51 124 78 172 65 25 -7 64 -2 158 19 l125 28 23 -66 c12 -37 36 -84 54 -105z m-986 -1063 c-20 -68 -20 -68 36 -114 29 -24 118 -107 198 -184 197 -189 469 -427 483 -422 7 2 13 27 15 57 l3 54 48 -89 48 -90 7 -127 c4 -74 3 -128 -3 -128 -5 0 -82 64 -172 143 -368 320 -709 604 -798 663 -23 14 -41 30 -41 34 0 17 41 103 61 129 24 30 98 91 111 91 5 0 7 -8 4 -17z m-47 -357 c123 -96 452 -374 709 -598 101 -88 191 -161 200 -162 15 -1 18 14 22 104 l5 105 28 -75 c47 -124 73 -240 151 -677 92 -512 166 -944 166 -966 0 -9 -10 -19 -22 -22 -66 -14 -390 -74 -434 -80 l-50 -6 -19 42 c-11 23 -38 60 -60 84 -40 40 -41 43 -29 76 24 66 17 147 -20 228 -33 72 -34 75 -20 115 54 153 86 455 65 621 -15 125 -28 167 -49 163 -19 -4 -19 0 4 -143 27 -169 8 -385 -52 -599 l-25 -88 36 -83 c41 -95 44 -142 15 -217 -11 -29 -20 -54 -20 -55 0 0 15 -10 33 -21 46 -26 94 -103 108 -170 24 -114 10 -515 -22 -682 -19 -92 -27 -101 -146 -157 -168 -80 -294 -105 -419 -84 -182 31 -299 143 -349 336 -8 32 -15 72 -15 87 0 19 -17 49 -50 90 -28 35 -63 87 -77 116 -24 49 -25 60 -20 135 4 45 18 142 32 216 14 74 25 159 25 189 0 33 -24 158 -59 306 -104 438 -131 630 -111 799 20 170 77 335 163 475 37 59 43 98 14 86 -21 -7 -102 -149 -138 -238 -124 -314 -117 -514 45 -1191 26 -104 46 -211 46 -236 0 -26 -12 -107 -26 -180 -14 -74 -28 -175 -31 -225 -5 -83 -3 -96 19 -145 14 -30 48 -85 76 -122 29 -37 52 -78 52 -90 0 -38 29 -139 59 -202 100 -214 343 -302 621 -225 41 12 125 45 185 74 61 30 137 64 170 76 33 13 179 81 324 151 145 71 265 128 266 127 7 -10 28 -314 30 -453 7 -306 -23 -403 -134 -435 -86 -25 -206 -28 -687 -20 -593 11 -810 30 -1048 91 -96 24 -150 51 -172 85 -23 34 -14 191 23 394 25 142 28 175 27 390 0 250 -18 428 -84 865 -44 290 -54 425 -55 730 0 568 37 673 433 1216 l137 188 25 -16 c14 -9 72 -52 129 -97z m3441 -1001 c-11 -12 -20 -27 -20 -35 0 -7 26 -50 57 -96 57 -84 78 -99 103 -69 18 22 25 19 45 -19 l18 -33 -204 -239 c-112 -131 -253 -297 -314 -369 -61 -71 -203 -238 -315 -370 -405 -476 -443 -520 -449 -523 -5 -2 -44 201 -55 282 0 4 33 23 75 41 42 18 96 46 120 62 24 17 70 45 102 64 73 43 135 102 154 146 8 19 19 60 24 91 8 41 20 67 45 94 28 31 34 46 34 81 0 24 -6 49 -12 56 -11 11 -8 12 12 5 42 -15 159 -9 177 9 14 14 10 20 -46 63 -33 26 -61 49 -61 51 0 1 16 23 35 48 19 25 40 64 46 86 11 35 10 43 -8 67 -11 14 -30 29 -42 32 -12 3 -22 9 -22 13 -1 8 73 99 344 425 l119 144 29 -43 c28 -43 28 -43 9 -64z m-1131 -560 c129 -42 237 -77 239 -80 3 -3 -24 -5 -59 -5 -52 0 -99 11 -244 60 -99 33 -186 62 -192 65 -15 5 -6 35 11 35 6 0 116 -34 245 -75z m659 18 c2 -12 -4 -36 -13 -53 l-16 -31 -26 21 c-56 44 -144 46 -225 4 -22 -11 -43 -14 -75 -9 -75 11 -44 29 83 46 66 10 135 24 154 33 19 8 53 14 75 13 33 -2 41 -6 43 -24z m-113 -83 c52 -20 41 -67 -35 -154 l-41 -49 20 -21 c30 -32 26 -60 -14 -105 -27 -30 -38 -53 -45 -94 -19 -119 -55 -160 -234 -266 -77 -46 -158 -84 -235 -110 -126 -44 -133 -47 -546 -270 -324 -175 -802 -418 -808 -411 -3 3 4 57 15 120 28 162 27 385 0 495 -11 44 -18 83 -14 86 4 4 34 11 67 17 295 51 967 186 993 199 49 25 103 95 157 203 26 52 57 109 70 125 12 17 29 44 38 60 33 65 73 92 149 105 40 7 103 10 142 7 62 -4 77 -2 121 20 101 52 150 62 200 43z m98 -153 c9 -8 17 -17 17 -21 0 -8 -63 -8 -84 0 -14 5 -14 8 0 30 17 24 25 23 67 -9z m407 -13 c0 -17 -55 -74 -72 -74 -5 0 8 20 29 45 20 25 39 45 40 45 2 0 3 -7 3 -16z m-1285 -205 c-25 -46 -62 -100 -83 -120 -38 -36 -39 -36 -331 -93 -161 -32 -295 -56 -297 -54 -2 2 43 25 99 51 56 25 226 104 377 176 151 71 276 128 277 127 2 -2 -17 -41 -42 -87z m1134 23 c-8 -24 -53 -62 -74 -62 -9 0 67 88 77 89 4 1 3 -12 -3 -27z m-2323 -514 c27 -105 25 -369 -4 -527 -11 -62 -24 -117 -29 -122 -6 -6 -33 -18 -61 -29 l-50 -19 9 32 c32 108 58 644 35 714 -6 19 -3 22 31 25 21 2 41 2 44 1 4 -2 15 -35 25 -75z m-341 -8523 c181 -126 245 -157 463 -220 191 -54 296 -97 339 -137 26 -24 63 -96 63 -121 0 -16 -69 -17 -1000 -17 l-1001 0 3 56 3 56 181 73 c285 116 476 204 654 303 91 50 167 91 170 91 3 1 59 -37 125 -84z m-1181 -404 l4 -91 -195 0 -194 0 3 82 3 82 110 1 c102 0 115 2 175 31 l65 31 12 -23 c7 -12 15 -63 17 -113z m10 -143 c3 -7 7 -25 10 -40 l6 -28 -194 0 -193 0 -7 31 c-3 17 -3 35 0 40 9 15 374 11 378 -3z m2046 -7 c0 -5 -3 -23 -6 -40 l-6 -31 -982 0 -982 0 -11 40 -10 40 998 0 c564 0 999 -4 999 -9z m11130 2 c0 -5 20 -21 45 -38 24 -16 45 -33 45 -37 0 -5 -58 -8 -130 -8 -71 0 -130 3 -130 8 0 4 32 20 70 36 39 16 73 32 76 37 6 11 24 12 24 2z m-4562 -55 c21 -21 13 -28 -28 -28 -45 0 -52 11 -17 28 29 14 31 14 45 0z" fill="#008eff"/>
<path d="M5456 14828 c-10 -14 -16 -44 -16 -78 0 -88 42 -127 86 -79 22 24 25 119 5 157 -15 29 -55 29 -75 0z" fill="#008eff"/>
<path d="M4551 10890 c-87 -41 -239 -88 -306 -96 -55 -7 -82 -24 -70 -44 13 -22 219 27 357 85 89 37 115 56 103 75 -9 14 -11 13 -84 -20z" fill="#008eff"/>
<path d="M4614 10748 c-105 -135 -265 -276 -387 -343 -73 -40 -85 -51 -69 -67 15 -15 137 51 223 120 185 148 356 352 295 352 -7 0 -35 -28 -62 -62z" fill="#008eff"/>
<path d="M16058 15280 c-189 -32 -363 -132 -482 -276 -65 -79 -105 -153 -142 -259 -39 -115 -46 -304 -15 -425 65 -256 240 -457 480 -549 99 -38 173 -51 291 -51 123 0 225 25 350 86 82 40 108 60 190 143 105 106 150 174 191 290 105 298 28 618 -200 834 -178 168 -429 246 -663 207z m270 -46 c266 -55 473 -240 563 -504 30 -87 33 -105 33 -220 0 -146 -15 -214 -75 -336 -89 -182 -236 -309 -444 -381 -104 -37 -280 -43 -395 -14 -219 54 -397 197 -495 396 -62 127 -78 202 -73 355 7 212 67 348 219 501 74 75 99 93 190 137 163 79 312 100 477 66z" fill="#008eff"/>
<path d="M16085 15164 c-134 -21 -275 -93 -370 -189 -127 -128 -185 -259 -193 -436 -9 -206 51 -363 192 -505 140 -139 299 -200 501 -191 424 18 716 418 609 832 -30 113 -82 203 -169 291 -130 131 -266 192 -443 199 -53 2 -110 1 -127 -1z m230 -49 c137 -29 280 -121 366 -235 216 -285 146 -699 -149 -893 -323 -213 -736 -104 -911 239 -45 89 -62 165 -61 277 0 120 11 168 62 277 33 69 56 100 122 165 157 155 357 215 571 170z" fill="#008eff"/>
<path d="M16147 15103 c-4 -3 -7 -28 -7 -54 0 -47 -1 -48 -34 -54 -61 -12 -133 -61 -163 -112 -25 -43 -28 -57 -28 -143 0 -86 3 -100 27 -142 15 -25 75 -90 134 -145 114 -106 136 -137 138 -195 1 -44 -14 -63 -42 -54 -24 8 -41 45 -50 112 -8 48 -8 49 -42 47 -19 -2 -65 -8 -102 -14 l-68 -11 0 -41 c0 -56 23 -138 50 -182 28 -45 80 -80 143 -96 l47 -11 0 -55 0 -54 48 3 47 3 3 56 3 55 42 12 c56 15 110 62 138 119 19 38 23 64 23 124 -1 117 -29 167 -176 309 -123 120 -146 157 -128 206 7 16 17 24 34 24 26 0 36 -21 36 -82 0 -20 5 -40 10 -43 18 -11 201 16 207 31 7 19 -15 142 -32 174 -23 45 -77 89 -124 103 -44 12 -46 14 -47 52 -1 65 -2 65 -42 65 -21 0 -42 -3 -45 -7z m55 -85 l3 -53 43 -7 c80 -13 131 -75 146 -175 7 -47 18 -40 -98 -58 -33 -5 -33 -5 -38 40 -3 25 -14 55 -23 65 -20 22 -65 26 -95 10 -19 -10 -42 -71 -35 -93 2 -7 6 -25 10 -42 4 -21 44 -67 129 -150 145 -141 170 -184 170 -285 0 -75 -25 -132 -74 -173 -28 -24 -86 -47 -117 -47 -9 0 -13 -18 -13 -55 0 -30 -4 -55 -10 -55 -5 0 -10 23 -10 50 0 32 -5 52 -12 54 -7 2 -35 9 -63 15 -93 22 -147 88 -161 197 l-6 50 65 10 65 10 12 -58 c8 -43 18 -63 41 -82 34 -29 47 -31 84 -14 50 22 53 116 6 192 -12 20 -62 70 -112 113 -130 113 -159 160 -159 264 0 62 18 119 48 152 24 27 87 57 135 65 l42 7 3 53 c2 28 7 52 12 52 5 0 10 -24 12 -52z" fill="#008eff"/>
<path d="M13069 14951 c-319 -45 -577 -274 -660 -586 -29 -110 -29 -279 0 -389 74 -282 290 -496 572 -567 69 -18 104 -21 218 -17 120 4 147 8 223 35 261 91 452 304 514 571 22 95 19 268 -6 367 -69 269 -275 482 -540 559 -95 27 -235 39 -321 27z m278 -56 c264 -61 478 -276 548 -550 24 -94 24 -256 0 -350 -78 -306 -324 -524 -641 -566 -153 -20 -333 21 -477 107 -133 81 -260 240 -312 391 -126 363 47 764 398 923 152 69 316 84 484 45z" fill="#008eff"/>
<path d="M13078 14829 c-140 -18 -273 -85 -378 -189 -188 -189 -245 -462 -149 -710 36 -94 79 -158 157 -235 124 -122 251 -176 432 -183 84 -3 134 0 184 12 188 44 356 178 441 351 49 99 65 172 65 295 0 123 -16 196 -65 295 -126 257 -398 401 -687 364z m217 -44 c246 -51 447 -258 491 -505 25 -138 8 -251 -59 -390 -100 -207 -320 -344 -552 -344 -112 0 -177 15 -284 66 -119 56 -223 161 -279 279 -66 139 -83 251 -58 389 62 344 402 576 741 505z" fill="#008eff"/>
<path d="M13137 14774 c-4 -4 -7 -29 -7 -55 l0 -48 -55 -16 c-66 -19 -130 -72 -156 -130 -22 -47 -25 -163 -7 -216 20 -59 65 -116 152 -189 113 -97 131 -122 131 -190 0 -52 -1 -55 -25 -55 -32 0 -60 52 -60 111 0 25 -5 44 -12 46 -7 3 -55 -2 -105 -10 l-93 -14 0 -46 c0 -134 72 -243 180 -273 l55 -16 5 -54 5 -54 40 0 40 0 3 55 3 56 49 17 c104 37 160 120 160 239 0 122 -23 164 -171 309 -101 101 -129 134 -134 162 -8 42 8 77 35 77 25 0 31 -12 39 -74 l6 -51 75 3 c41 1 89 6 105 10 29 8 30 10 26 63 -8 121 -67 207 -158 230 -42 11 -42 11 -45 63 -3 51 -3 51 -38 54 -20 2 -39 0 -43 -4z m101 -149 c55 -13 94 -41 117 -85 16 -31 35 -129 26 -134 -3 -2 -34 -6 -67 -10 l-61 -7 -7 43 c-10 61 -30 88 -67 88 -45 0 -67 -16 -80 -58 -16 -55 2 -110 54 -163 24 -24 77 -76 119 -115 96 -92 128 -152 128 -243 0 -73 -22 -132 -61 -168 -28 -25 -89 -53 -118 -53 -23 0 -34 -27 -30 -73 2 -17 -1 -34 -6 -37 -4 -3 -9 17 -9 44 -1 54 -4 57 -81 75 -88 21 -155 113 -155 212 0 34 1 35 72 43 l56 7 7 -43 c9 -54 30 -94 54 -108 31 -16 69 -12 92 11 18 18 21 30 17 84 -5 76 -31 114 -156 224 -115 102 -136 135 -141 228 -6 135 38 199 162 233 l62 17 4 54 5 54 5 -54 6 -55 53 -11z" fill="#008eff"/>
<path d="M10572 13673 c3 -382 5 -438 18 -438 13 0 15 56 18 438 2 433 2 437 -18 437 -20 0 -20 -4 -18 -437z" fill="#008eff"/>
<path d="M7854 13288 c-9 -13 19 -38 273 -244 98 -79 184 -144 191 -144 38 0 -14 52 -218 218 -123 100 -228 182 -232 182 -4 0 -10 -5 -14 -12z" fill="#008eff"/>
<path d="M12860 13214 c-58 -48 -160 -131 -227 -186 -114 -91 -145 -128 -109 -128 22 0 461 360 461 378 0 31 -22 20 -125 -64z" fill="#008eff"/>
<path d="M8805 12548 c-3 -7 -4 -713 -3 -1568 l3 -1555 1714 -3 c1258 -1 1717 1 1727 9 12 10 14 268 14 1554 0 849 -3 1550 -6 1559 -6 15 -167 16 -1725 16 -1367 0 -1721 -3 -1724 -12z m937 -455 l3 -428 278 -3 277 -2 0 430 0 430 465 0 465 0 0 -1530 0 -1530 -1192 2 -1193 3 -3 1528 -2 1527 450 0 450 0 2 -427z m526 17 l-3 -411 -240 0 -240 0 -3 411 -2 410 245 0 245 0 -2 -410z m1950 -1117 l-3 -1528 -470 0 -470 0 -3 1528 -2 1527 475 0 475 0 -2 -1527z" fill="#008eff"/>
<path d="M16968 12088 l-3 -152 -60 -22 c-33 -11 -83 -33 -111 -47 l-51 -26 -104 105 c-57 57 -108 104 -114 104 -13 0 -325 -312 -325 -325 0 -6 47 -57 104 -114 l104 -103 -33 -72 c-18 -39 -39 -90 -45 -113 l-13 -42 -151 -3 -151 -3 -3 -229 c-2 -177 1 -231 10 -238 7 -4 76 -8 153 -7 l140 1 21 -58 c12 -33 33 -82 47 -110 l26 -51 -105 -104 c-57 -57 -104 -108 -104 -114 0 -5 44 -54 97 -107 l98 -98 -107 0 c-106 0 -106 0 -112 26 -4 14 -18 49 -31 77 -14 28 -25 55 -25 61 0 6 34 43 75 83 41 40 75 79 75 86 0 17 -232 247 -250 247 -8 0 -48 -34 -90 -75 l-75 -74 -82 32 -82 32 -3 115 -3 115 -180 0 -180 0 -3 -116 -3 -116 -42 -13 c-23 -7 -59 -21 -81 -32 l-39 -20 -76 76 c-42 42 -83 76 -91 76 -20 0 -250 -231 -250 -250 0 -8 34 -49 76 -91 l76 -76 -20 -39 c-11 -22 -25 -58 -32 -81 l-13 -42 -116 -3 -116 -3 0 -180 0 -180 116 -3 116 -3 13 -42 c7 -23 21 -59 32 -81 l20 -39 -76 -76 c-42 -42 -76 -83 -76 -91 0 -18 230 -250 248 -250 7 0 47 34 88 75 l75 75 84 -32 84 -33 3 -115 3 -115 180 0 180 0 3 117 3 117 52 17 c29 9 65 23 81 31 29 15 29 15 105 -61 42 -42 83 -76 91 -76 19 0 250 230 250 249 0 7 -34 49 -76 92 l-77 78 25 58 c14 32 29 68 33 80 6 21 12 23 123 25 l117 3 3 169 3 170 54 -54 54 -54 110 108 109 108 43 -23 c24 -12 73 -32 109 -44 l65 -22 5 -154 5 -154 224 -3 c161 -2 227 1 238 9 11 10 14 41 13 143 -1 72 -1 138 -1 147 1 10 13 19 31 22 16 4 66 23 110 43 l81 37 109 -108 109 -109 161 159 c88 88 160 166 160 174 0 9 -46 62 -102 118 l-102 102 36 78 c20 43 41 94 47 113 l11 35 143 -3 c116 -3 146 -1 155 11 9 11 12 75 10 238 l-3 224 -154 5 -153 5 -27 75 c-16 41 -36 90 -45 109 l-18 33 101 103 c56 56 101 109 101 117 0 18 -304 328 -322 328 -7 0 -60 -47 -117 -104 l-104 -105 -51 26 c-28 14 -77 35 -109 47 l-58 21 -1 140 c0 77 -3 146 -5 153 -4 9 -61 12 -239 12 l-233 0 -3 -152z m444 -36 l3 -146 95 -36 c52 -19 106 -43 120 -53 13 -9 31 -17 40 -17 8 0 61 46 117 102 l103 103 140 -140 140 -139 -106 -107 -105 -107 29 -59 c16 -32 40 -87 52 -123 13 -36 28 -71 33 -77 7 -9 50 -13 153 -13 l144 0 -2 -197 -3 -198 -149 -5 -149 -5 -23 -67 c-12 -37 -37 -95 -54 -129 l-31 -61 105 -107 106 -107 -140 -139 -140 -140 -97 97 c-54 52 -105 98 -113 100 -8 3 -42 -8 -75 -25 -33 -16 -89 -40 -125 -52 l-65 -22 -3 -151 -3 -152 -199 0 -200 0 0 144 c0 103 -4 146 -12 154 -7 6 -42 20 -77 32 -35 12 -87 33 -115 48 -28 15 -55 28 -59 30 -4 2 -56 -44 -115 -102 l-108 -106 -139 140 -140 140 103 103 c56 56 102 108 102 115 0 7 -15 43 -34 80 -19 38 -42 94 -51 125 l-16 56 -152 3 -152 3 0 195 0 195 150 5 149 5 27 75 c14 42 38 99 53 128 14 28 26 57 26 64 0 7 -45 58 -100 113 l-100 100 140 140 140 140 104 -104 105 -105 79 37 c43 21 103 45 133 55 l54 17 3 147 3 148 182 2 c100 2 190 1 199 -1 15 -3 18 -20 20 -149z m-1760 -1755 c112 -50 193 -166 204 -288 12 -128 -49 -256 -157 -328 -70 -47 -140 -65 -224 -59 -126 11 -232 83 -287 196 -30 61 -33 75 -33 162 0 84 3 101 28 147 50 97 120 156 220 189 66 22 181 13 249 -19z" fill="#008eff"/>
<path d="M17093 11546 c-262 -60 -438 -322 -393 -585 33 -199 185 -366 377 -416 72 -19 192 -19 262 0 176 46 320 190 366 366 31 116 15 261 -42 373 -31 60 -119 155 -183 196 -104 67 -263 94 -387 66z m279 -59 c284 -103 400 -445 237 -699 -66 -102 -183 -184 -300 -209 -74 -16 -202 -6 -271 20 -220 85 -351 332 -293 554 45 174 180 308 351 352 79 20 192 13 276 -18z" fill="#008eff"/>
<path d="M8098 8977 c-242 -199 -248 -205 -248 -217 0 -5 8 -10 18 -10 21 0 456 353 460 374 8 38 -45 4 -230 -147z" fill="#008eff"/>
<path d="M12510 9127 c0 -17 444 -377 465 -377 39 0 -1 40 -206 206 -210 171 -259 203 -259 171z" fill="#008eff"/>
<path d="M10575 8938 c-3 -7 -4 -204 -3 -438 3 -370 5 -425 18 -425 13 0 15 55 15 434 0 339 -3 435 -12 438 -7 3 -15 -1 -18 -9z" fill="#008eff"/>
<path d="M13261 8290 c-347 -94 -696 -549 -860 -1121 -110 -382 -114 -772 -11 -1038 139 -357 460 -432 788 -186 76 57 89 60 338 75 295 19 575 -3 956 -75 188 -35 187 -35 267 -107 l52 -47 -48 -59 c-27 -32 -60 -76 -73 -96 -21 -36 -22 -40 -8 -64 12 -19 13 -31 5 -53 -10 -25 -8 -32 16 -57 l28 -29 -36 -84 c-20 -46 -54 -142 -75 -213 -66 -217 -84 -256 -140 -298 -60 -46 -86 -91 -72 -123 13 -27 89 -92 210 -178 129 -91 199 -99 263 -31 19 20 24 38 27 97 3 68 8 82 102 267 122 242 134 273 166 423 30 140 49 194 72 201 10 2 48 10 85 16 103 19 121 36 177 169 43 104 51 116 86 134 55 28 174 151 215 222 177 310 170 624 -16 766 -71 54 -122 74 -435 173 -526 168 -821 293 -1085 464 -176 113 -397 321 -410 385 -13 66 -49 164 -83 231 -106 204 -294 292 -501 236z m273 -59 c84 -41 155 -118 206 -225 52 -109 68 -175 82 -339 34 -390 -74 -855 -284 -1224 -113 -199 -320 -433 -451 -512 -114 -68 -173 -86 -277 -86 -82 0 -103 4 -153 27 -125 59 -231 219 -275 416 -16 70 2 47 22 -29 39 -152 128 -279 231 -329 43 -22 64 -25 155 -25 100 0 109 2 180 36 338 162 644 657 760 1227 41 205 41 515 0 677 -46 182 -146 319 -265 364 -50 19 -74 22 -145 19 -134 -7 -244 -65 -395 -207 l-80 -75 80 82 c209 217 431 291 609 203z m-60 -71 c136 -69 228 -265 244 -522 7 -103 0 -314 -11 -324 -4 -4 -260 34 -549 82 -80 14 -169 -60 -234 -191 -44 -92 -64 -172 -64 -263 0 -91 15 -143 49 -176 14 -13 139 -75 276 -136 138 -61 253 -115 257 -118 9 -10 -99 -178 -172 -267 -119 -146 -266 -259 -379 -291 -69 -21 -182 -15 -236 11 -101 49 -187 185 -227 357 -18 78 -22 123 -21 283 0 163 4 209 26 325 84 434 262 797 511 1045 164 162 269 218 406 212 56 -2 87 -9 124 -27z m457 -508 c215 -231 627 -461 1111 -621 36 -12 71 -28 77 -35 36 -43 43 -313 12 -461 -22 -108 -67 -226 -118 -315 -45 -77 -178 -215 -246 -254 l-47 -27 -218 40 c-361 67 -507 82 -801 81 -141 -1 -289 -5 -328 -9 -40 -4 -73 -5 -73 -4 0 2 30 38 66 81 215 251 386 607 454 941 35 174 45 274 45 459 0 100 3 182 6 182 4 0 31 -26 60 -58z m-767 -303 c40 -19 60 -73 59 -164 -1 -167 -102 -365 -207 -405 -140 -53 -159 255 -28 456 43 65 62 85 107 108 36 19 37 19 69 5z m334 -50 c151 -24 202 -36 202 -46 0 -88 -108 -446 -183 -606 l-46 -98 -33 14 c-74 32 -383 170 -387 173 -2 2 21 26 51 53 137 125 205 382 142 535 -6 17 -4 19 22 14 16 -3 120 -21 232 -39z m1807 -359 c66 -22 154 -50 195 -61 169 -47 287 -124 335 -219 55 -109 57 -251 5 -412 -44 -135 -100 -230 -189 -318 -67 -66 -76 -72 -79 -53 -4 27 13 22 -266 73 -120 22 -237 45 -260 50 -35 8 -48 5 -101 -20 -33 -16 -78 -32 -100 -35 l-40 -6 30 23 c155 118 266 294 327 521 19 70 23 107 23 257 0 96 -3 190 -7 208 -4 17 -4 32 0 32 4 0 62 -18 127 -40z m-2948 -362 c-3 -8 -6 -5 -6 6 -1 11 2 17 5 13 3 -3 4 -12 1 -19z m10 -140 c-2 -13 -4 -5 -4 17 -1 22 1 32 4 23 2 -10 2 -28 0 -40z m10 -80 c-3 -7 -5 -2 -5 12 0 14 2 19 5 13 2 -7 2 -19 0 -25z m2851 -434 c253 -45 292 -54 292 -64 0 -4 -22 -59 -49 -121 -26 -63 -51 -124 -55 -136 -8 -25 -56 -46 -149 -63 -100 -18 -106 -29 -160 -280 -27 -125 -59 -201 -182 -431 -73 -135 -75 -141 -75 -210 0 -63 -3 -72 -26 -94 -45 -42 -72 -34 -167 50 -94 82 -142 138 -132 155 3 6 23 19 43 29 58 30 79 59 121 171 21 58 73 186 115 285 42 99 76 187 76 195 0 8 -16 26 -35 40 -19 14 -35 29 -35 33 0 5 40 62 90 128 120 159 123 167 124 266 1 46 2 83 4 83 1 0 91 -16 200 -36z m-238 -26 c0 -29 -5 -69 -10 -89 -11 -41 -190 -288 -217 -302 -16 -7 -16 -7 -3 5 9 7 42 54 74 105 83 132 85 173 9 254 l-24 26 53 12 c29 6 64 18 78 26 38 21 40 19 40 -37z m-162 -166 c-42 -79 -86 -132 -109 -132 -10 0 -19 3 -19 8 0 4 25 36 55 72 31 36 63 77 72 92 32 48 32 19 1 -40z m-91 -218 c-3 -3 -12 -4 -19 -1 -8 3 -5 6 6 6 11 1 17 -2 13 -5z m62 -110 c17 -4 31 -12 31 -18 0 -7 -38 -100 -84 -208 -46 -107 -91 -220 -101 -249 -29 -87 -41 -105 -100 -138 -30 -17 -55 -36 -55 -41 0 -6 -11 -10 -25 -10 -41 0 -30 27 30 73 l55 42 67 205 c67 209 124 350 141 350 5 0 24 -3 41 -6z" fill="#008eff"/>
<path d="M7922 8196 c-166 -42 -318 -165 -390 -317 -108 -225 -84 -381 109 -716 33 -56 59 -104 59 -107 0 -3 -406 -7 -902 -8 l-903 -3 -3 -498 -2 -499 27 -51 c20 -36 44 -60 82 -85 l54 -34 -7 -1053 c-5 -879 -4 -1054 8 -1064 10 -8 524 -10 1937 -9 l1924 3 3 1073 c1 719 5 1072 12 1072 6 0 30 18 55 41 77 71 76 59 73 614 l-3 490 -817 3 -817 2 58 93 c75 119 135 237 166 331 91 273 -85 603 -376 706 -80 28 -265 37 -347 16z m253 -345 c99 -43 155 -131 155 -240 0 -79 -22 -132 -75 -186 -54 -53 -107 -75 -186 -75 -152 0 -258 108 -259 263 0 193 187 315 365 238z m-1875 -1101 l0 -260 -185 0 -185 0 0 260 0 260 185 0 185 0 0 -260z m411 25 c1 -129 2 -245 2 -257 1 -23 1 -23 -186 -26 l-187 -2 0 260 0 260 185 0 185 0 1 -235z m419 -25 l0 -260 -187 2 -188 3 -3 245 c-1 134 0 250 3 257 3 10 49 13 190 13 l185 0 0 -260z m410 0 l0 -260 -185 0 -185 0 0 260 0 260 185 0 185 0 0 -260z m235 198 c22 -35 70 -105 108 -157 l67 -95 0 -103 0 -103 -185 0 -185 0 0 260 0 260 78 0 77 0 40 -62z m1005 -198 l0 -260 -190 0 -190 0 0 260 0 260 190 0 190 0 0 -260z m410 0 l0 -260 -187 2 -188 3 -3 245 c-1 134 0 250 3 257 3 10 49 13 190 13 l185 0 0 -260z m410 0 l0 -260 -185 0 -185 0 0 260 0 260 185 0 185 0 0 -260z m420 0 l0 -260 -190 0 -190 0 0 260 0 260 190 0 190 0 0 -260z m-1660 -25 l0 -235 -185 0 -185 0 0 77 c0 60 3 74 12 65 7 -7 28 -12 48 -12 32 0 41 8 111 93 41 50 102 127 135 169 32 43 60 78 62 78 1 0 2 -106 2 -235z m-2050 -462 c0 -161 -3 -194 -19 -228 -35 -77 -116 -123 -197 -111 -60 8 -98 29 -131 73 l-28 36 -3 209 -3 208 190 0 191 0 0 -187z m410 -8 c0 -172 -2 -200 -19 -233 -23 -46 -46 -67 -94 -87 -81 -34 -183 -6 -231 63 -26 38 -26 38 -26 245 l0 207 185 0 185 0 0 -195z m410 8 c0 -161 -3 -194 -19 -228 -48 -106 -179 -145 -278 -84 -69 43 -73 59 -73 292 l0 207 185 0 185 0 0 -187z m410 -16 l0 -204 -31 -42 c-78 -109 -242 -107 -317 4 -21 30 -22 43 -22 238 l0 207 185 0 185 0 0 -203z m410 13 c0 -216 -4 -235 -67 -291 -46 -41 -98 -55 -165 -44 -33 6 -54 19 -90 55 l-48 47 0 205 c0 113 3 208 7 211 3 4 87 7 185 7 l178 0 0 -190z m415 0 c0 -102 -3 -197 -8 -212 -31 -112 -199 -165 -294 -92 -70 53 -73 65 -73 292 l0 202 188 -2 187 -3 0 -185z m403 -13 c-3 -196 -4 -205 -27 -239 -74 -107 -214 -117 -302 -21 -40 44 -41 47 -35 97 3 28 6 122 6 209 l0 157 181 0 180 0 -3 -203z m422 26 c0 -98 -5 -195 -10 -215 -38 -134 -215 -182 -318 -85 -49 45 -52 63 -52 277 l0 200 190 0 190 0 0 -177z m410 -23 c0 -220 -3 -236 -59 -283 -92 -77 -238 -50 -291 53 -18 35 -20 58 -20 235 l0 195 185 0 185 0 0 -200z m420 5 c0 -225 -8 -253 -82 -302 -35 -24 -52 -28 -108 -28 -83 0 -137 31 -169 97 -19 40 -21 61 -21 236 l0 192 190 0 190 0 0 -195z m-3597 -347 c49 -25 141 -29 199 -10 20 7 53 30 74 52 l38 39 37 -39 c66 -67 188 -87 271 -44 15 8 30 14 33 14 3 0 4 -262 3 -582 l-3 -583 -462 -3 -463 -2 0 565 c0 530 1 566 18 571 53 16 104 47 128 78 l28 35 29 -35 c16 -19 48 -44 70 -56z m853 -16 c23 -6 49 -12 58 -12 15 0 16 -58 16 -685 l0 -685 -630 0 -630 0 0 685 c0 450 3 685 10 685 7 0 10 -196 10 -569 0 -313 3 -576 6 -585 5 -14 58 -16 494 -16 271 0 491 4 494 9 3 5 6 282 6 616 1 514 3 612 15 636 l15 28 48 -47 c28 -29 63 -52 88 -60z m787 16 c49 -25 141 -29 201 -9 21 7 56 31 77 52 l39 39 35 -38 c32 -34 34 -42 34 -102 l0 -65 -230 -234 c-126 -129 -227 -236 -224 -239 3 -4 107 95 230 218 l225 225 0 -344 c0 -316 -1 -345 -17 -357 -14 -11 -113 -13 -485 -14 l-468 0 0 436 0 436 37 38 38 38 48 -44 c62 -56 130 -73 213 -55 46 11 66 22 103 60 l46 47 28 -33 c16 -19 48 -43 70 -55z m767 -578 l5 -615 495 0 495 0 3 583 2 582 25 0 25 0 0 -685 0 -685 -632 2 -633 3 -3 674 c-1 451 1 678 8 686 6 7 24 15 42 19 18 4 49 25 77 54 l46 47 20 -25 c19 -24 20 -43 25 -640z m496 569 c98 -33 214 -6 270 64 l26 34 48 -48 c32 -32 59 -50 84 -54 l36 -7 0 -569 0 -569 -460 0 -460 0 0 581 c0 550 1 581 18 574 95 -42 207 -21 275 49 l42 43 41 -42 c22 -23 58 -48 80 -56z m-756 -456 l0 -432 -25 24 c-13 14 -31 25 -39 25 -14 0 -16 51 -18 416 -2 229 -2 417 0 418 1 2 20 -2 42 -8 l40 -10 0 -433z m-1128 5 l3 -443 468 -3 c404 -2 467 -4 467 -17 0 -13 -63 -15 -467 -17 l-468 -3 0 -570 0 -570 509 -3 c367 -1 513 1 522 9 12 9 14 104 14 525 l0 514 24 10 c13 5 31 19 40 32 15 21 16 -22 16 -550 l0 -572 -587 2 -588 3 -3 1035 c-1 569 0 1041 3 1048 2 6 13 12 25 12 20 0 20 -6 22 -442z m1076 -442 c21 -27 20 -47 -2 -72 -18 -22 -28 -26 -49 -20 -32 8 -51 39 -43 72 10 39 70 52 94 20z m-103 -110 c34 -32 35 -36 35 -107 l0 -73 -232 -233 c-128 -128 -226 -233 -218 -233 8 0 108 97 223 215 115 118 213 215 218 215 5 0 8 -168 7 -407 l-3 -408 -482 -3 -483 -2 0 535 0 535 450 0 451 0 34 -34z m-1065 -766 l0 -340 -632 2 -633 3 -3 325 c-1 179 0 330 3 337 3 10 137 13 635 13 l630 0 0 -340z m2530 0 l0 -340 -635 0 -635 0 0 333 c0 184 3 337 7 340 3 4 289 7 635 7 l628 0 0 -340z" fill="#008eff"/>
<path d="M6745 5520 c-126 -126 -226 -233 -222 -237 4 -4 37 22 73 58 123 120 387 400 382 404 -2 2 -107 -99 -233 -225z" fill="#008eff"/>
<path d="M6412 5397 c-122 -122 -222 -228 -222 -236 0 -10 5 -9 21 5 55 49 440 454 433 454 -5 0 -109 -100 -232 -223z" fill="#008eff"/>
<path d="M7888 5429 c-125 -128 -225 -236 -222 -238 9 -9 457 446 452 459 -2 7 -106 -93 -230 -221z" fill="#008eff"/>
<path d="M9498 5516 c-120 -123 -218 -226 -218 -230 0 -18 34 14 238 224 123 127 218 230 210 229 -7 0 -111 -101 -230 -223z" fill="#008eff"/>
<path d="M9165 5389 c-127 -127 -223 -229 -214 -227 18 3 467 458 452 458 -4 0 -112 -104 -238 -231z" fill="#008eff"/>
<path d="M7881 4359 c-124 -126 -222 -232 -218 -235 6 -6 448 438 455 457 10 27 -34 -15 -237 -222z" fill="#008eff"/>
<path d="M15800 4783 c-106 -39 -161 -274 -108 -461 24 -86 26 -90 36 -77 4 6 32 29 63 53 144 109 209 212 209 330 0 67 -23 112 -72 142 -32 19 -94 25 -128 13z" fill="#008eff"/>
<path d="M15712 4185 c0 -16 2 -22 5 -12 2 9 2 23 0 30 -3 6 -5 -1 -5 -18z" fill="#008eff"/>
<path d="M15698 4080 c-1 -28 0 -50 5 -50 4 0 7 23 7 50 0 65 -7 65 -12 0z" fill="#008eff"/>
<path d="M11627 3250 c-9 -6 -27 -30 -38 -53 -26 -50 -30 -155 -8 -205 l14 -33 59 52 c32 29 65 68 72 86 19 45 18 106 -3 132 -21 25 -71 36 -96 21z" fill="#008eff"/>
<path d="M12843 3091 c-45 -33 -72 -72 -101 -148 l-20 -52 25 10 c13 5 43 9 66 9 84 1 177 69 177 129 0 16 -9 40 -21 55 -28 36 -74 35 -126 -3z" fill="#008eff"/>
<path d="M11582 2880 c0 -19 2 -27 5 -17 2 9 2 25 0 35 -3 9 -5 1 -5 -18z" fill="#008eff"/>
<path d="M18400 1475 c0 -13 31 -15 220 -15 189 0 220 2 220 15 0 13 -31 15 -220 15 -189 0 -220 -2 -220 -15z" fill="#008eff"/>
</g>
</svg>